<svg width="110" height="43" viewBox="0 0 110 43" fill="none" xmlns="http://www.w3.org/2000/svg">
<g clip-path="url(#clip0_98_939)">
<path d="M29.7593 20.7592C29.3762 21.6908 28.8374 22.5512 28.1659 23.3039C27.499 24.0527 26.7209 24.6954 25.8586 25.2098C25.0055 25.7308 24.1005 26.1624 23.1581 26.4976C22.1689 26.8318 21.1505 27.0732 20.1162 27.2188C19.0815 27.3836 17.9434 27.4969 16.8466 27.5794C15.7499 27.6618 14.6738 27.703 13.6288 27.703H10.9076V32.2257C10.9076 32.7717 10.9076 33.2559 10.9076 33.7505C10.9076 34.245 10.9076 34.7189 10.9076 35.2649C10.9076 36.2951 10.9801 37.1709 11.0111 37.9126C11.0198 38.5642 11.2135 39.1999 11.5698 39.7464C11.9859 40.2817 12.5254 40.7093 13.1425 40.993C14.1585 41.47 15.2682 41.7163 16.3914 41.7142V42.1984H0.209171V41.7142C1.03496 41.5926 1.84853 41.3996 2.64064 41.1373C3.34387 40.9293 3.97465 40.5296 4.46166 39.9834C4.66471 39.7318 4.80321 39.4348 4.86518 39.118C4.9768 38.6918 5.05634 38.2579 5.10315 37.8199C5.14454 37.3323 5.18593 36.8171 5.22731 36.2746C5.22731 35.7285 5.22731 35.2443 5.22731 34.688C5.22731 34.1317 5.22731 33.6577 5.22731 32.8542C5.22731 32.0506 5.22731 31.2367 5.27905 30.3301C5.33078 29.4235 5.27905 28.4757 5.27905 27.5072V15.3092C5.27905 14.7323 5.27905 14.1451 5.27905 13.5578C5.27905 12.9706 5.22732 12.3937 5.17558 11.8682C5.1311 11.3817 5.04807 10.8994 4.92726 10.4259C4.85292 10.0755 4.6849 9.7516 4.44097 9.4884C3.90797 8.96262 3.23156 8.60436 2.49579 8.45817C1.69909 8.28303 0.840318 8.12849 -0.0701904 8.00486V7.52065H1.22315H3.47872C4.3375 7.52065 5.27905 7.52065 6.29302 7.52065C7.307 7.52065 8.31063 7.52065 9.30391 7.52065C10.2972 7.52065 11.2387 7.52065 12.1182 7.52065H14.4048C16.3854 7.50749 18.3651 7.61069 20.3335 7.82972C22.035 8.02872 23.6843 8.54234 25.1964 9.34417C26.6835 10.1155 27.9559 11.2409 28.9005 12.6203C29.8919 14.064 30.4155 15.7754 30.4008 17.5242C30.4103 18.6348 30.192 19.7356 29.7593 20.7592ZM23.3961 12.3216C22.4177 10.8926 21.0602 9.762 19.4747 9.05571C18.6499 8.6959 17.7796 8.4498 16.888 8.32423C15.9449 8.19856 14.9943 8.1366 14.0427 8.13878C13.4934 8.12965 12.944 8.15374 12.3976 8.2109L11.456 8.32423C11.4292 8.4991 11.3877 8.67142 11.3319 8.83935C11.2728 9.01692 11.2312 9.19979 11.2077 9.38537C11.2077 9.61203 11.1353 9.9314 11.1042 10.3229C11.0732 10.7144 11.0422 11.3016 11.0008 12.0331C11.0008 13.1663 10.949 14.5263 10.9283 16.154C10.9076 17.7818 10.9283 19.3271 10.9283 20.8725V27.0539C12.3045 27.0539 13.6081 27.0539 14.829 26.9406C15.9835 26.8696 17.124 26.6515 18.2228 26.2916C20.2175 25.7 21.9622 24.4731 23.1892 22.7991C24.3312 21.2032 24.9361 19.288 24.9171 17.3285C24.9492 15.5421 24.4172 13.7908 23.3961 12.3216Z" fill="#FFFEFC"/>
<path d="M66.8935 8.91126C66.1219 9.40321 65.5248 10.1239 65.1863 10.9717C65.0562 11.3282 64.966 11.6979 64.9173 12.0741C64.8242 12.5892 64.7518 13.1867 64.6793 13.8564C64.6069 14.5261 64.5655 15.2472 64.5345 15.9993C64.5034 16.7514 64.5345 17.5034 64.5345 18.2452C64.5345 19.6257 64.4621 21.1608 64.4103 22.8607C64.3586 24.5606 64.2965 26.4974 64.2241 28.6403C64.2241 29.2584 64.1517 30.0208 64.0999 30.9583C64.0388 31.9571 63.8794 32.9474 63.624 33.9151C63.326 34.9957 62.8914 36.0342 62.3306 37.0058C61.6762 38.1275 60.8039 39.1082 59.7647 39.8905C58.5322 40.8379 57.1266 41.5377 55.626 41.951C53.6033 42.4955 51.5128 42.7487 49.418 42.703C47.3252 42.748 45.2362 42.5053 43.21 41.9819C41.7204 41.5907 40.3169 40.9269 39.0713 40.0244C38.0847 39.2814 37.249 38.3584 36.6088 37.3046C36.0535 36.3968 35.6122 35.4245 35.2947 34.4096C35.0268 33.5663 34.8567 32.6953 34.7878 31.8134C34.736 31.0201 34.7153 30.4329 34.7153 30.0517C34.7153 29.1554 34.7153 27.9912 34.7153 26.5386C34.7153 25.086 34.7153 23.4479 34.7153 21.7171V13.5782C34.7154 13.038 34.6878 12.4982 34.6326 11.9608C34.5887 11.5061 34.5127 11.0551 34.4049 10.6112C34.3302 10.2671 34.1741 9.94568 33.9497 9.67364C33.4834 9.13282 32.8793 8.72711 32.2011 8.49917C31.4376 8.23838 30.6457 8.06891 29.842 7.99435V7.51015H44.9482V7.95315C44.4364 8.02196 43.9286 8.11825 43.4272 8.24161C42.9086 8.36142 42.4126 8.56316 41.958 8.83915C41.5059 9.14385 41.1277 9.54507 40.8509 10.0136C40.5307 10.5731 40.3564 11.2036 40.3439 11.8474C40.3439 12.7437 40.3439 13.4958 40.2715 14.1037C40.1991 14.7115 40.2715 15.2987 40.2715 15.8448V25.5187C40.2715 26.2605 40.2715 26.9816 40.2715 27.6719C40.2715 28.3621 40.2715 29.0833 40.2715 29.856C40.2812 31.4385 40.5539 33.0085 41.0785 34.5023C41.5389 35.8222 42.2641 37.035 43.21 38.067C44.1402 39.0613 45.2821 39.8357 46.5519 40.3335C47.9898 40.8866 49.522 41.156 51.0631 41.1268C52.717 41.1651 54.3671 40.9532 55.9571 40.4983C57.1995 40.1533 58.3603 39.5649 59.3715 38.7675C60.2197 38.0562 60.9223 37.1887 61.4408 36.2125C61.9741 35.2419 62.3676 34.2015 62.61 33.1218C62.8685 32.021 63.0381 30.9013 63.117 29.7736C63.1998 28.6403 63.2411 27.5173 63.2411 26.4253V18.2555C63.2411 17.6065 63.2411 16.9471 63.2411 16.2775C63.2411 15.6078 63.2412 14.9588 63.1584 14.3509C63.0756 13.7431 63.0756 13.1661 63.0135 12.6407C62.9653 12.2034 62.861 11.7741 62.7031 11.3632C62.3682 10.4659 61.7559 9.69759 60.9545 9.16882C59.8416 8.50114 58.5946 8.08606 57.3022 7.95315V7.46893H69.8527V7.95315C68.8082 8.05527 67.7985 8.38218 66.8935 8.91126ZM48.0833 3.76007C47.8639 3.97151 47.6047 4.1377 47.3206 4.24908C47.0365 4.36047 46.7331 4.41485 46.4278 4.40913C45.8246 4.43967 45.2335 4.2324 44.7827 3.8322C44.5736 3.63223 44.4073 3.39226 44.2937 3.12671C44.18 2.86116 44.1215 2.57549 44.1215 2.28684C44.1215 1.9982 44.18 1.71253 44.2937 1.44698C44.4073 1.18142 44.5736 0.941456 44.7827 0.741488C45.0002 0.530368 45.2575 0.364299 45.5399 0.25289C45.8223 0.14148 46.1241 0.0869391 46.4278 0.092434C46.7331 0.0867081 47.0365 0.141112 47.3206 0.252497C47.6047 0.363881 47.8639 0.530056 48.0833 0.741488C48.2923 0.941456 48.4586 1.18142 48.5723 1.44698C48.6859 1.71253 48.7444 1.9982 48.7444 2.28684C48.7444 2.57549 48.6859 2.86116 48.5723 3.12671C48.4586 3.39226 48.2923 3.63223 48.0833 3.8322V3.76007ZM57.0538 3.76007C56.6086 4.17733 56.0202 4.40968 55.4087 4.40968C54.7973 4.40968 54.2089 4.17733 53.7636 3.76007C53.5519 3.56165 53.3832 3.3222 53.2679 3.05644C53.1526 2.79068 53.0931 2.50422 53.0931 2.21472C53.0931 1.92522 53.1526 1.63878 53.2679 1.37301C53.3832 1.10725 53.5519 0.867793 53.7636 0.669364C54.2089 0.252105 54.7973 0.0197754 55.4087 0.0197754C56.0202 0.0197754 56.6086 0.252105 57.0538 0.669364C57.2629 0.869332 57.4292 1.1093 57.5428 1.37485C57.6564 1.64041 57.715 1.92607 57.715 2.21472C57.715 2.50337 57.6564 2.78905 57.5428 3.0546C57.4292 3.32015 57.2629 3.56011 57.0538 3.76007Z" fill="#FFFEFC"/>
<path d="M99.6098 42.1884C99.2994 41.9 99.0821 41.6836 98.9476 41.5394C98.8131 41.3952 98.6579 41.2303 98.4923 41.0346C98.263 40.7675 98.0522 40.4852 97.8612 40.1898C97.6025 39.8189 97.2093 39.2626 96.661 38.5311C96.0195 37.6348 95.4607 36.8209 94.9641 36.0998C94.4675 35.3786 93.9294 34.6574 93.4742 33.9569C93.0189 33.2563 92.4395 32.5351 91.8187 31.814C91.1979 31.0928 90.5254 30.2789 89.7494 29.3723C89.0652 28.6338 88.3287 27.9452 87.5455 27.3118C86.8235 26.7066 85.958 26.2952 85.0313 26.1168C84.5491 26.0043 84.057 25.9387 83.562 25.921C83.262 25.921 82.8688 25.921 82.4032 25.8695V31.3092C82.4032 32.8545 82.4032 34.1526 82.4032 35.2138C82.4032 36.2749 82.4757 37.13 82.5067 37.8615C82.5203 38.5122 82.7136 39.1467 83.0654 39.6953C83.4901 40.221 84.0322 40.6408 84.6485 40.9213C85.6608 41.411 86.7718 41.6647 87.8973 41.663V42.1472H71.6737V41.663C72.4995 41.5415 73.3131 41.3484 74.1052 41.0861C74.8037 40.8897 75.434 40.5046 75.9262 39.9734C76.1292 39.7219 76.2677 39.4249 76.3297 39.1081C76.4413 38.6818 76.5209 38.2479 76.5677 37.8099C76.6091 37.3223 76.6505 36.8072 76.6918 36.2646C76.6918 35.7186 76.7436 35.2344 76.7436 34.678C76.7436 34.1217 76.7436 33.6478 76.7436 32.8442C76.7436 32.0406 76.7436 31.2267 76.7436 30.3201C76.7436 29.4135 76.7436 28.4657 76.7436 27.4973V15.3096C76.7436 14.7326 76.7436 14.1454 76.7436 13.5582C76.7436 12.9709 76.7436 12.394 76.6401 11.8686C76.5956 11.3821 76.5126 10.8998 76.3918 10.4263C76.3175 10.0758 76.1494 9.75195 75.9055 9.48875C75.4405 9.00297 74.8553 8.64765 74.2086 8.45852C73.4509 8.255 72.68 8.10354 71.9013 8.00521V7.521H73.9707H77.8714C79.3303 7.521 80.7788 7.521 82.2377 7.521H85.7866C88.0525 7.521 90.0598 7.59312 91.8187 7.71674C93.4938 7.82284 95.1302 8.26434 96.6299 9.01484C98.0614 9.70582 99.2985 10.7394 100.231 12.0231C101.186 13.4389 101.668 15.1193 101.607 16.824C101.622 17.9272 101.385 19.0193 100.913 20.0178C100.462 20.957 99.8449 21.8082 99.0924 22.5315C98.3002 23.2737 97.4046 23.8983 96.4333 24.386C95.4039 24.9024 94.3348 25.3365 93.2362 25.6841V25.8283C93.859 26.1508 94.4251 26.5718 94.9124 27.0749C95.4757 27.6518 96.001 28.2644 96.4851 28.9087C97.3645 30.1347 98.3164 31.4431 99.3408 32.8545C100.365 34.2659 101.296 35.5228 102.103 36.6149C103.1 38.0343 104.336 39.2716 105.756 40.2722C107.007 41.0699 108.421 41.5802 109.894 41.7661V42.2503L99.6098 42.1884ZM94.5502 12.1777C93.6264 10.8574 92.3457 9.82507 90.8565 9.20029C90.0366 8.83794 89.1746 8.57839 88.2905 8.42761C87.362 8.25948 86.4199 8.17671 85.4762 8.18035C84.7726 8.18035 84.1932 8.18035 83.7586 8.23186L82.724 8.32458C82.724 8.52032 82.6515 8.68516 82.6205 8.8397C82.5814 9.01942 82.5572 9.20205 82.5481 9.38572C82.5481 9.61237 82.5481 9.93175 82.5481 10.3232C82.5481 10.7147 82.5481 11.302 82.4653 12.0334C82.4653 13.1667 82.4653 14.4339 82.3929 15.8453C82.3204 17.2567 82.3929 18.6166 82.3929 19.9663V25.2617C83.769 25.2617 85.0623 25.2102 86.2625 25.0968C87.4436 24.9908 88.6095 24.7558 89.739 24.3963C90.7347 24.1171 91.6782 23.6787 92.5326 23.0982C93.2665 22.5934 93.9071 21.966 94.4261 21.2437C94.916 20.5656 95.2868 19.8097 95.5228 19.0081C95.7605 18.1948 95.879 17.3517 95.8746 16.5047C95.8896 14.9612 95.4272 13.4505 94.5502 12.1777Z" fill="#FFFEFC"/>
</g>
<defs>
<clipPath id="clip0_98_939">
<rect width="110" height="42.6724" fill="white"/>
</clipPath>
</defs>
</svg>
