<svg width="200" height="78" viewBox="0 0 200 78" fill="none" xmlns="http://www.w3.org/2000/svg">
<g clip-path="url(#clip0_600_171)">
<path d="M54.1075 37.7437C53.4109 39.4377 52.4314 41.002 51.2105 42.3704C49.9979 43.7319 48.5831 44.9006 47.0154 45.8358C45.4643 46.783 43.8189 47.5677 42.1054 48.1772C40.3068 48.7848 38.4552 49.2238 36.5746 49.4884C34.6934 49.7881 32.6241 49.9942 30.63 50.144C28.6359 50.2939 26.6794 50.3688 24.7794 50.3688H19.8318V58.592C19.8318 59.5848 19.8318 60.4651 19.8318 61.3642C19.8318 62.2634 19.8318 63.125 19.8318 64.1178C19.8318 65.9909 19.9635 67.5831 20.0199 68.9318C20.0356 70.1164 20.3878 71.2724 21.0358 72.266C21.7922 73.2393 22.7731 74.0167 23.8952 74.5326C25.7424 75.3998 27.76 75.8476 29.8022 75.8438V76.7242H0.38V75.8438C1.88144 75.6227 3.36066 75.2717 4.80086 74.7948C6.07945 74.4167 7.22632 73.69 8.1118 72.6969C8.48099 72.2394 8.73279 71.6994 8.84547 71.1234C9.04842 70.3485 9.19305 69.5596 9.27815 68.7632C9.3534 67.8766 9.42865 66.94 9.5039 65.9535C9.5039 64.9607 9.5039 64.0803 9.5039 63.0688C9.5039 62.0573 9.5039 61.1957 9.5039 59.7346C9.5039 58.2735 9.5039 56.7938 9.59796 55.1454C9.69202 53.497 9.59796 51.7737 9.59796 50.0129V27.8347C9.59796 26.7858 9.59796 25.7181 9.59796 24.6504C9.59796 23.5827 9.5039 22.5337 9.40984 21.5784C9.32897 20.6938 9.17799 19.8169 8.95835 18.956C8.82318 18.3188 8.5177 17.7299 8.07418 17.2514C7.10509 16.2954 5.87526 15.6441 4.53749 15.3782C3.08895 15.0598 1.52754 14.7788 -0.12793 14.554V13.6737H2.22359H6.32464C7.88605 13.6737 9.59796 13.6737 11.4416 13.6737C13.2851 13.6737 15.1099 13.6737 16.9159 13.6737C18.7219 13.6737 20.4338 13.6737 22.0328 13.6737H26.1903C29.7914 13.6497 33.3908 13.8374 36.9697 14.2356C40.0634 14.5974 43.062 15.5313 45.8114 16.9892C48.5151 18.3916 50.8286 20.4378 52.5461 22.9458C54.3487 25.5707 55.3006 28.6823 55.2739 31.862C55.2912 33.8812 54.8943 35.8826 54.1075 37.7437ZM42.5381 22.4026C40.7591 19.8044 38.2909 17.7489 35.4083 16.4647C33.9086 15.8105 32.3263 15.363 30.7052 15.1347C28.9904 14.9062 27.262 14.7936 25.5319 14.7975C24.5331 14.7809 23.5342 14.8247 22.5407 14.9287L20.8288 15.1347C20.7801 15.4527 20.7046 15.766 20.6031 16.0713C20.4957 16.3942 20.4201 16.7266 20.3773 17.0641C20.3773 17.4762 20.2456 18.0569 20.1892 18.7687C20.1328 19.4805 20.0763 20.5482 20.0011 21.8781C20.0011 23.9386 19.907 26.4111 19.8694 29.3707C19.8318 32.3303 19.8694 35.14 19.8694 37.9498V49.1887C22.3714 49.1887 24.7418 49.1887 26.9616 48.9827C29.0606 48.8537 31.1343 48.4571 33.132 47.8026C36.7588 46.727 39.931 44.4963 42.1618 41.4526C44.2383 38.551 45.3381 35.0689 45.3035 31.5061C45.3619 28.2581 44.3946 25.0739 42.5381 22.4026Z" fill="#0F110C"/>
<path d="M121.625 16.2025C120.222 17.0969 119.136 18.4073 118.521 19.9488C118.285 20.5969 118.12 21.2691 118.032 21.9531C117.863 22.8897 117.731 23.9761 117.599 25.1936C117.468 26.4112 117.392 27.7224 117.336 29.0898C117.28 30.4572 117.336 31.8246 117.336 33.1733C117.336 35.6833 117.204 38.4743 117.11 41.565C117.016 44.6558 116.903 48.1773 116.772 52.0735C116.772 53.1974 116.64 54.5835 116.546 56.2881C116.435 58.1039 116.145 59.9046 115.681 61.664C115.139 63.6287 114.349 65.517 113.329 67.2835C112.139 69.323 110.553 71.1059 108.664 72.5284C106.423 74.2509 103.867 75.5233 101.139 76.2747C97.4611 77.2647 93.6601 77.7251 89.8514 77.6421C86.0463 77.7239 82.2481 77.2826 78.5641 76.3309C75.8558 75.6196 73.3041 74.4128 71.0392 72.7719C69.2455 71.421 67.7261 69.7428 66.5619 67.8267C65.5523 66.1761 64.7499 64.4084 64.1728 62.5631C63.6857 61.0299 63.3764 59.4461 63.251 57.8428C63.1569 56.4005 63.1193 55.3328 63.1193 54.6397C63.1193 53.01 63.1193 50.8934 63.1193 48.2522C63.1193 45.6111 63.1193 42.6327 63.1193 39.4858V24.6879C63.1195 23.7057 63.0693 22.7241 62.9688 21.747C62.8892 20.9204 62.7509 20.1004 62.555 19.2932C62.419 18.6676 62.1353 18.0832 61.7272 17.5886C60.8794 16.6053 59.7812 15.8676 58.548 15.4532C57.1598 14.9791 55.72 14.6709 54.2588 14.5354V13.655H81.7246V14.4604C80.7939 14.5856 79.8708 14.7606 78.9592 14.9849C78.0162 15.2028 77.1143 15.5696 76.2878 16.0714C75.4658 16.6254 74.7782 17.3549 74.2749 18.2068C73.6927 19.224 73.3758 20.3703 73.3531 21.541C73.3531 23.1706 73.3531 24.538 73.2215 25.6432C73.0898 26.7484 73.2215 27.8161 73.2215 28.8088V46.3978C73.2215 47.7465 73.2215 49.0577 73.2215 50.3127C73.2215 51.5677 73.2215 52.8789 73.2215 54.2838C73.2391 57.1611 73.7349 60.0157 74.6888 62.7317C75.5258 65.1314 76.8443 67.3365 78.5641 69.2129C80.2554 71.0207 82.3316 72.4287 84.6404 73.3338C87.2547 74.3395 90.0405 74.8294 92.8425 74.7761C95.8496 74.8458 98.8498 74.4605 101.741 73.6335C104 73.0062 106.11 71.9363 107.949 70.4866C109.491 69.1933 110.768 67.616 111.711 65.8412C112.681 64.0764 113.396 62.1848 113.837 60.2217C114.307 58.2202 114.615 56.1844 114.759 54.1339C114.909 52.0735 114.984 50.0317 114.984 48.0462V33.192C114.984 32.0119 114.984 30.8131 114.984 29.5956C114.984 28.378 114.984 27.1979 114.834 26.0928C114.683 24.9876 114.683 23.9386 114.571 22.9833C114.483 22.1883 114.293 21.4077 114.006 20.6606C113.397 19.0292 112.284 17.6322 110.827 16.6708C108.804 15.4568 106.536 14.7021 104.186 14.4604V13.5801H127.005V14.4604C125.106 14.6461 123.271 15.2405 121.625 16.2025ZM87.4246 6.83668C87.0257 7.2211 86.5545 7.52327 86.0379 7.72578C85.5214 7.9283 84.9697 8.02719 84.4147 8.01678C83.3179 8.07231 82.2433 7.69546 81.4236 6.96781C81.0435 6.60424 80.7411 6.16793 80.5345 5.6851C80.3279 5.20228 80.2214 4.68289 80.2214 4.15808C80.2214 3.63326 80.3279 3.11387 80.5345 2.63105C80.7411 2.14822 81.0435 1.71192 81.4236 1.34834C81.819 0.964484 82.287 0.66254 82.8004 0.459977C83.3138 0.257415 83.8625 0.158249 84.4147 0.168239C84.9697 0.157829 85.5214 0.256745 86.0379 0.459263C86.5545 0.66178 87.0257 0.963917 87.4246 1.34834C87.8047 1.71192 88.1072 2.14822 88.3137 2.63105C88.5203 3.11387 88.6268 3.63326 88.6268 4.15808C88.6268 4.68289 88.5203 5.20228 88.3137 5.6851C88.1072 6.16793 87.8047 6.60424 87.4246 6.96781V6.83668ZM103.735 6.83668C102.925 7.59533 101.855 8.01778 100.744 8.01778C99.6319 8.01778 98.5621 7.59533 97.7525 6.83668C97.3676 6.4759 97.0609 6.04054 96.8512 5.55734C96.6416 5.07414 96.5334 4.55331 96.5334 4.02694C96.5334 3.50057 96.6416 2.97977 96.8512 2.49657C97.0609 2.01337 97.3676 1.57798 97.7525 1.2172C98.5621 0.45855 99.6319 0.0361328 100.744 0.0361328C101.855 0.0361328 102.925 0.45855 103.735 1.2172C104.115 1.58078 104.417 2.01709 104.624 2.49991C104.83 2.98274 104.937 3.50213 104.937 4.02694C104.937 4.55175 104.83 5.07117 104.624 5.554C104.417 6.03682 104.115 6.4731 103.735 6.83668Z" fill="#0F110C"/>
<path d="M181.108 76.7061C180.544 76.1816 180.149 75.7882 179.904 75.526C179.66 75.2638 179.378 74.964 179.077 74.6081C178.66 74.1225 178.276 73.6093 177.929 73.0721C177.459 72.3978 176.744 71.3863 175.747 70.0564C174.58 68.4267 173.565 66.9469 172.662 65.6357C171.759 64.3245 170.78 63.0133 169.953 61.7396C169.125 60.4658 168.071 59.1546 166.943 57.8434C165.814 56.5322 164.591 55.0524 163.18 53.404C161.936 52.0613 160.597 50.8093 159.173 49.6577C157.86 48.5572 156.287 47.8092 154.602 47.4848C153.725 47.2803 152.831 47.1611 151.931 47.1289C151.385 47.1289 150.67 47.1289 149.824 47.0353V56.9255C149.824 59.7353 149.824 62.0955 149.824 64.0248C149.824 65.9542 149.955 67.5089 150.012 68.8388C150.036 70.022 150.388 71.1756 151.028 72.173C151.8 73.1288 152.785 73.8921 153.906 74.4021C155.746 75.2926 157.767 75.7538 159.813 75.7508V76.6312H130.315V75.7508C131.817 75.5297 133.296 75.1787 134.736 74.7018C136.006 74.3447 137.152 73.6445 138.047 72.6788C138.416 72.2214 138.668 71.6813 138.781 71.1053C138.984 70.3304 139.128 69.5415 139.214 68.7451C139.289 67.8585 139.364 66.9219 139.439 65.9354C139.439 64.9426 139.533 64.0623 139.533 63.0508C139.533 62.0393 139.533 61.1776 139.533 59.7165C139.533 58.2555 139.533 56.7757 139.533 55.1273C139.533 53.4789 139.533 51.7556 139.533 49.9949V27.8354C139.533 26.7864 139.533 25.7187 139.533 24.651C139.533 23.5833 139.533 22.5344 139.345 21.579C139.264 20.6944 139.113 19.8175 138.894 18.9566C138.759 18.3195 138.453 17.7306 138.01 17.2521C137.164 16.3688 136.1 15.7228 134.924 15.3789C133.547 15.0089 132.145 14.7335 130.729 14.5547V13.6743H134.492H141.584C144.236 13.6743 146.87 13.6743 149.523 13.6743H155.975C160.095 13.6743 163.745 13.8054 166.943 14.0302C169.988 14.2231 172.964 15.0258 175.69 16.3904C178.293 17.6467 180.542 19.526 182.237 21.86C183.975 24.4341 184.85 27.4894 184.739 30.5889C184.767 32.5947 184.336 34.5804 183.479 36.3957C182.657 38.1033 181.536 39.6511 180.168 40.9662C178.727 42.3156 177.099 43.4512 175.333 44.3379C173.461 45.2769 171.517 46.0662 169.52 46.6981V46.9603C170.652 47.5467 171.682 48.3121 172.568 49.2268C173.592 50.2758 174.547 51.3895 175.427 52.5611C177.026 54.7901 178.757 57.169 180.619 59.7353C182.482 62.3015 184.175 64.5868 185.642 66.5723C187.455 69.1531 189.701 71.4027 192.283 73.222C194.557 74.6724 197.128 75.6002 199.808 75.9381V76.8185L181.108 76.7061ZM171.909 22.141C170.23 19.7406 167.901 17.8635 165.193 16.7276C163.702 16.0688 162.135 15.5969 160.528 15.3227C158.84 15.017 157.127 14.8665 155.411 14.8731C154.132 14.8731 153.078 14.8731 152.288 14.9668L150.407 15.1354C150.407 15.4913 150.275 15.791 150.219 16.072C150.148 16.3987 150.104 16.7308 150.087 17.0647C150.087 17.4768 150.087 18.0575 150.087 18.7693C150.087 19.4811 150.087 20.5488 149.937 21.8788C149.937 23.9392 149.937 26.2432 149.805 28.8094C149.673 31.3757 149.805 33.8482 149.805 36.3021V45.9301C152.307 45.9301 154.658 45.8364 156.841 45.6304C158.988 45.4376 161.108 45.0104 163.161 44.3567C164.972 43.849 166.687 43.0519 168.241 41.9965C169.575 41.0788 170.74 39.938 171.683 38.6248C172.574 37.3919 173.248 36.0175 173.677 34.56C174.11 33.0813 174.325 31.5483 174.317 30.0083C174.344 27.2019 173.504 24.4552 171.909 22.141Z" fill="#0F110C"/>
</g>
<defs>
<clipPath id="clip0_600_171">
<rect width="200" height="77.5862" fill="white"/>
</clipPath>
</defs>
</svg>
