<svg width="50" height="24" viewBox="0 0 50 24" fill="none" xmlns="http://www.w3.org/2000/svg">
<path d="M2.13281 13.5859L1.18359 16H0.0234375L3.39258 7.74414H4.66406L7.98047 16H6.83789L5.89453 13.5859H2.13281ZM4.01367 8.58789C3.94727 8.80664 3.86719 9.05078 3.77344 9.32031C3.68359 9.58594 3.59961 9.82031 3.52148 10.0234L2.47266 12.7129H5.56055L4.5 9.98828C4.44531 9.85156 4.37305 9.6582 4.2832 9.4082C4.19336 9.1582 4.10352 8.88477 4.01367 8.58789ZM14.2793 15.0859V16H8.98828V7.74414H10.1074V15.0859H14.2793ZM20.959 15.0859V16H15.668V7.74414H16.7871V15.0859H20.959Z" fill="#FFFEFC"/>
<path d="M40.3536 9.89645C40.1583 9.70118 39.8417 9.70118 39.6464 9.89645L36.4645 13.0784C36.2692 13.2737 36.2692 13.5903 36.4645 13.7855C36.6597 13.9808 36.9763 13.9808 37.1716 13.7855L40 10.9571L42.8284 13.7855C43.0237 13.9808 43.3403 13.9808 43.5355 13.7855C43.7308 13.5903 43.7308 13.2737 43.5355 13.0784L40.3536 9.89645ZM40.5 10.75L40.5 10.25L39.5 10.25L39.5 10.75L40.5 10.75Z" fill="#FFFEFC"/>
</svg>
