<svg width="50" height="24" viewBox="0 0 50 24" fill="none" xmlns="http://www.w3.org/2000/svg">
<path d="M2.13281 13.5859L1.18359 16H0.0234375L3.39258 7.74414H4.66406L7.98047 16H6.83789L5.89453 13.5859H2.13281ZM4.01367 8.58789C3.94727 8.80664 3.86719 9.05078 3.77344 9.32031C3.68359 9.58594 3.59961 9.82031 3.52148 10.0234L2.47266 12.7129H5.56055L4.5 9.98828C4.44531 9.85156 4.37305 9.6582 4.2832 9.4082C4.19336 9.1582 4.10352 8.88477 4.01367 8.58789ZM14.2793 15.0859V16H8.98828V7.74414H10.1074V15.0859H14.2793ZM20.959 15.0859V16H15.668V7.74414H16.7871V15.0859H20.959Z" fill="black"/>
<path d="M39.6464 14.1036C39.8417 14.2988 40.1583 14.2988 40.3536 14.1036L43.5355 10.9216C43.7308 10.7263 43.7308 10.4097 43.5355 10.2145C43.3403 10.0192 43.0237 10.0192 42.8284 10.2145L40 13.0429L37.1716 10.2145C36.9763 10.0192 36.6597 10.0192 36.4645 10.2145C36.2692 10.4097 36.2692 10.7263 36.4645 10.9216L39.6464 14.1036ZM39.5 13.25L39.5 13.75L40.5 13.75L40.5 13.25L39.5 13.25Z" fill="black"/>
</svg>
