<svg width="32" height="32" viewBox="0 0 32 32" fill="none" xmlns="http://www.w3.org/2000/svg">
<g id="healthicons:ui-menu">
<path id="Vector" fill-rule="evenodd" clip-rule="evenodd" d="M4 7.33329C4 7.15648 4.07024 6.98691 4.19526 6.86189C4.32029 6.73686 4.48986 6.66663 4.66667 6.66663H27.3333C27.5101 6.66663 27.6797 6.73686 27.8047 6.86189C27.9298 6.98691 28 7.15648 28 7.33329C28 7.5101 27.9298 7.67967 27.8047 7.8047C27.6797 7.92972 27.5101 7.99996 27.3333 7.99996H4.66667C4.48986 7.99996 4.32029 7.92972 4.19526 7.8047C4.07024 7.67967 4 7.5101 4 7.33329ZM4 16C4 15.8231 4.07024 15.6536 4.19526 15.5286C4.32029 15.4035 4.48986 15.3333 4.66667 15.3333H27.3333C27.5101 15.3333 27.6797 15.4035 27.8047 15.5286C27.9298 15.6536 28 15.8231 28 16C28 16.1768 27.9298 16.3463 27.8047 16.4714C27.6797 16.5964 27.5101 16.6666 27.3333 16.6666H4.66667C4.48986 16.6666 4.32029 16.5964 4.19526 16.4714C4.07024 16.3463 4 16.1768 4 16ZM4 24.6666C4 24.4898 4.07024 24.3202 4.19526 24.1952C4.32029 24.0702 4.48986 24 4.66667 24H27.3333C27.5101 24 27.6797 24.0702 27.8047 24.1952C27.9298 24.3202 28 24.4898 28 24.6666C28 24.8434 27.9298 25.013 27.8047 25.138C27.6797 25.2631 27.5101 25.3333 27.3333 25.3333H4.66667C4.48986 25.3333 4.32029 25.2631 4.19526 25.138C4.07024 25.013 4 24.8434 4 24.6666Z" fill="#0F110C"/>
</g>
</svg>
