<svg width="32" height="32" viewBox="0 0 32 32" fill="none" xmlns="http://www.w3.org/2000/svg">
<g id="system-uicons:bag">
<g id="Group">
<path id="Vector" fill-rule="evenodd" clip-rule="evenodd" d="M9.79244 6.86175L22.1262 6.85718C22.5093 6.8571 22.8783 7.00132 23.1599 7.26111C23.4414 7.52091 23.6148 7.87722 23.6454 8.25908L25.0077 25.0195C25.0239 25.219 25.0007 25.4198 24.9394 25.6103C24.878 25.8009 24.7797 25.9774 24.6501 26.13C24.5205 26.2825 24.3621 26.4081 24.1839 26.4994C24.0058 26.5907 23.8114 26.646 23.6119 26.6621L23.49 26.6667H8.5033C8.09916 26.6667 7.71158 26.5062 7.42581 26.2204C7.14004 25.9346 6.97949 25.547 6.97949 25.1429L6.98406 25.0256L8.27321 8.26823C8.30276 7.88554 8.47564 7.52811 8.75729 7.26736C9.03895 7.00662 9.40862 6.86176 9.79244 6.86175Z" stroke="#0F110C" stroke-linecap="round" stroke-linejoin="round"/>
<path id="Vector_2" d="M20.5716 12.9524V13.9353C20.5716 15.6191 17.6839 16 16.0001 16C14.3163 16 11.4287 15.3981 11.4287 13.7143V12.9524" stroke="#0F110C" stroke-linecap="round" stroke-linejoin="round"/>
</g>
</g>
</svg>
