<svg width="32" height="32" viewBox="0 0 32 32" fill="none" xmlns="http://www.w3.org/2000/svg">
<g id="system-uicons:bag">
<g id="Group">
<path id="Vector" fill-rule="evenodd" clip-rule="evenodd" d="M9.79196 6.86175L22.1257 6.85718C22.5088 6.8571 22.8778 7.00132 23.1594 7.26111C23.4409 7.52091 23.6143 7.87722 23.6449 8.25908L25.0072 25.0195C25.0235 25.219 25.0003 25.4198 24.9389 25.6103C24.8776 25.8009 24.7793 25.9774 24.6496 26.13C24.52 26.2825 24.3616 26.4081 24.1835 26.4994C24.0053 26.5907 23.8109 26.646 23.6114 26.6621L23.4895 26.6667H8.50281C8.09867 26.6667 7.71109 26.5062 7.42532 26.2204C7.13955 25.9346 6.979 25.547 6.979 25.1429L6.98358 25.0256L8.27272 8.26823C8.30227 7.88554 8.47515 7.52811 8.7568 7.26736C9.03846 7.00662 9.40814 6.86176 9.79196 6.86175Z" stroke="#FFFEFC" stroke-linecap="round" stroke-linejoin="round"/>
<path id="Vector_2" d="M20.5713 12.9524V13.9353C20.5713 15.6191 17.6837 16 15.9999 16C14.3161 16 11.4285 15.3981 11.4285 13.7143V12.9524" stroke="#FFFEFC" stroke-linecap="round" stroke-linejoin="round"/>
</g>
</g>
</svg>
