<svg width="60" height="43" viewBox="0 0 110 43" fill="none" xmlns="http://www.w3.org/2000/svg">
<g clip-path="url(#clip0_98_939)">
<path d="M66.8935 8.91126C66.1219 9.40321 65.5248 10.1239 65.1863 10.9717C65.0562 11.3282 64.966 11.6979 64.9173 12.0741C64.8242 12.5892 64.7518 13.1867 64.6793 13.8564C64.6069 14.5261 64.5655 15.2472 64.5345 15.9993C64.5034 16.7514 64.5345 17.5034 64.5345 18.2452C64.5345 19.6257 64.4621 21.1608 64.4103 22.8607C64.3586 24.5606 64.2965 26.4974 64.2241 28.6403C64.2241 29.2584 64.1517 30.0208 64.0999 30.9583C64.0388 31.9571 63.8794 32.9474 63.624 33.9151C63.326 34.9957 62.8914 36.0342 62.3306 37.0058C61.6762 38.1275 60.8039 39.1082 59.7647 39.8905C58.5322 40.8379 57.1266 41.5377 55.626 41.951C53.6033 42.4955 51.5128 42.7487 49.418 42.703C47.3252 42.748 45.2362 42.5053 43.21 41.9819C41.7204 41.5907 40.3169 40.9269 39.0713 40.0244C38.0847 39.2814 37.249 38.3584 36.6088 37.3046C36.0535 36.3968 35.6122 35.4245 35.2947 34.4096C35.0268 33.5663 34.8567 32.6953 34.7878 31.8134C34.736 31.0201 34.7153 30.4329 34.7153 30.0517C34.7153 29.1554 34.7153 27.9912 34.7153 26.5386C34.7153 25.086 34.7153 23.4479 34.7153 21.7171V13.5782C34.7154 13.038 34.6878 12.4982 34.6326 11.9608C34.5887 11.5061 34.5127 11.0551 34.4049 10.6112C34.3302 10.2671 34.1741 9.94568 33.9497 9.67364C33.4834 9.13282 32.8793 8.72711 32.2011 8.49917C31.4376 8.23838 30.6457 8.06891 29.842 7.99435V7.51015H44.9482V7.95315C44.4364 8.02196 43.9286 8.11825 43.4272 8.24161C42.9086 8.36142 42.4126 8.56316 41.958 8.83915C41.5059 9.14385 41.1277 9.54507 40.8509 10.0136C40.5307 10.5731 40.3564 11.2036 40.3439 11.8474C40.3439 12.7437 40.3439 13.4958 40.2715 14.1037C40.1991 14.7115 40.2715 15.2987 40.2715 15.8448V25.5187C40.2715 26.2605 40.2715 26.9816 40.2715 27.6719C40.2715 28.3621 40.2715 29.0833 40.2715 29.856C40.2812 31.4385 40.5539 33.0085 41.0785 34.5023C41.5389 35.8222 42.2641 37.035 43.21 38.067C44.1402 39.0613 45.2821 39.8357 46.5519 40.3335C47.9898 40.8866 49.522 41.156 51.0631 41.1268C52.717 41.1651 54.3671 40.9532 55.9571 40.4983C57.1995 40.1533 58.3603 39.5649 59.3715 38.7675C60.2197 38.0562 60.9223 37.1887 61.4408 36.2125C61.9741 35.2419 62.3676 34.2015 62.61 33.1218C62.8685 32.021 63.0381 30.9013 63.117 29.7736C63.1998 28.6403 63.2411 27.5173 63.2411 26.4253V18.2555C63.2411 17.6065 63.2411 16.9471 63.2411 16.2775C63.2411 15.6078 63.2412 14.9588 63.1584 14.3509C63.0756 13.7431 63.0756 13.1661 63.0135 12.6407C62.9653 12.2034 62.861 11.7741 62.7031 11.3632C62.3682 10.4659 61.7559 9.69759 60.9545 9.16882C59.8416 8.50114 58.5946 8.08606 57.3022 7.95315V7.46893H69.8527V7.95315C68.8082 8.05527 67.7985 8.38218 66.8935 8.91126ZM48.0833 3.76007C47.8639 3.97151 47.6047 4.1377 47.3206 4.24908C47.0365 4.36047 46.7331 4.41485 46.4278 4.40913C45.8246 4.43967 45.2335 4.2324 44.7827 3.8322C44.5736 3.63223 44.4073 3.39226 44.2937 3.12671C44.18 2.86116 44.1215 2.57549 44.1215 2.28684C44.1215 1.9982 44.18 1.71253 44.2937 1.44698C44.4073 1.18142 44.5736 0.941456 44.7827 0.741488C45.0002 0.530368 45.2575 0.364299 45.5399 0.25289C45.8223 0.14148 46.1241 0.0869391 46.4278 0.092434C46.7331 0.0867081 47.0365 0.141112 47.3206 0.252497C47.6047 0.363881 47.8639 0.530056 48.0833 0.741488C48.2923 0.941456 48.4586 1.18142 48.5723 1.44698C48.6859 1.71253 48.7444 1.9982 48.7444 2.28684C48.7444 2.57549 48.6859 2.86116 48.5723 3.12671C48.4586 3.39226 48.2923 3.63223 48.0833 3.8322V3.76007ZM57.0538 3.76007C56.6086 4.17733 56.0202 4.40968 55.4087 4.40968C54.7973 4.40968 54.2089 4.17733 53.7636 3.76007C53.5519 3.56165 53.3832 3.3222 53.2679 3.05644C53.1526 2.79068 53.0931 2.50422 53.0931 2.21472C53.0931 1.92522 53.1526 1.63878 53.2679 1.37301C53.3832 1.10725 53.5519 0.867793 53.7636 0.669364C54.2089 0.252105 54.7973 0.0197754 55.4087 0.0197754C56.0202 0.0197754 56.6086 0.252105 57.0538 0.669364C57.2629 0.869332 57.4292 1.1093 57.5428 1.37485C57.6564 1.64041 57.715 1.92607 57.715 2.21472C57.715 2.50337 57.6564 2.78905 57.5428 3.0546C57.4292 3.32015 57.2629 3.56011 57.0538 3.76007Z" fill="#FFFEFC"/>
</g>
<defs>
<clipPath id="clip0_98_939">
<rect width="110" height="42.6724"/>
</clipPath>
</defs>
</svg>
