<svg width="100" height="107" viewBox="0 0 100 107" fill="none" xmlns="http://www.w3.org/2000/svg">
<g id="1">
<path id="Vector" d="M92.6041 22.2228C90.6755 23.4523 89.1831 25.2536 88.3372 27.3726C88.0119 28.2635 87.7864 29.1875 87.6649 30.1278C87.4321 31.4152 87.2511 32.9087 87.0701 34.5824C86.8891 36.256 86.7856 38.0585 86.708 39.9382C86.6305 41.8178 86.708 43.6975 86.708 45.5515C86.708 49.0019 86.527 52.8385 86.3977 57.087C86.2684 61.3356 86.1133 66.1765 85.9323 71.5323C85.9323 73.0772 85.7512 74.9827 85.6219 77.3258C85.4692 79.822 85.0708 82.2971 84.4324 84.7158C83.6876 87.4165 82.6014 90.0122 81.1999 92.4405C79.5642 95.244 77.3841 97.6949 74.7867 99.6503C71.7064 102.018 68.1933 103.767 64.4427 104.8C59.3874 106.161 54.1624 106.794 48.9268 106.68C43.6962 106.792 38.475 106.186 33.4109 104.877C29.688 103.9 26.1803 102.241 23.067 99.985C20.6012 98.128 18.5126 95.8212 16.9123 93.1872C15.5244 90.9183 14.4215 88.4883 13.6281 85.9517C12.9585 83.844 12.5333 81.667 12.361 79.463C12.2317 77.4803 12.18 76.0126 12.18 75.0599C12.18 72.8197 12.18 69.9101 12.18 66.2794C12.18 62.6488 12.18 58.5547 12.18 54.2289V33.8872C12.1802 32.537 12.1112 31.1877 11.9731 29.8445C11.8636 28.7082 11.6735 27.581 11.4042 26.4714C11.2173 25.6114 10.8273 24.8082 10.2664 24.1282C9.10094 22.7765 7.59124 21.7625 5.89605 21.1928C3.98788 20.541 2.00863 20.1175 0 19.9311V18.721H37.7554V19.8281C36.4761 20.0001 35.2071 20.2408 33.954 20.5491C32.6577 20.8486 31.418 21.3528 30.2819 22.0426C29.1519 22.8041 28.2067 23.8069 27.5149 24.978C26.7145 26.3763 26.2788 27.9521 26.2477 29.5613C26.2477 31.8015 26.2477 33.6811 26.0667 35.2003C25.8857 36.7195 26.0667 38.1872 26.0667 39.5519V63.7303C26.0667 65.5842 26.0667 67.3867 26.0667 69.1119C26.0667 70.837 26.0667 72.6395 26.0667 74.5706C26.091 78.5259 26.7725 82.4499 28.0838 86.1835C29.2344 89.4822 31.0469 92.5133 33.4109 95.0927C35.7359 97.5778 38.5898 99.5133 41.7636 100.757C45.3573 102.14 49.1867 102.813 53.0385 102.74C57.1721 102.836 61.2963 102.306 65.2702 101.169C68.3755 100.307 71.2767 98.8365 73.804 96.8436C75.9241 95.0657 77.6801 92.8976 78.976 90.4578C80.3087 88.032 81.2923 85.4316 81.8981 82.7331C82.5443 79.9818 82.9681 77.1834 83.1653 74.3646C83.3721 71.5323 83.4756 68.7256 83.4756 65.9962V45.5772C83.4756 43.955 83.4756 42.3071 83.4756 40.6334C83.4756 38.9597 83.4756 37.3375 83.2687 35.8183C83.0618 34.2991 83.0618 32.8572 82.9066 31.544C82.786 30.4511 82.5253 29.378 82.1309 28.3511C81.2937 26.1084 79.7635 24.1881 77.7605 22.8665C74.9791 21.1978 71.8622 20.1604 68.632 19.8281V18.6179H100V19.8281C97.3896 20.0834 94.866 20.9005 92.6041 22.2228ZM45.5909 9.34826C45.0425 9.8767 44.3947 10.2921 43.6847 10.5705C42.9746 10.8488 42.2163 10.9848 41.4533 10.9705C39.9457 11.0468 38.4685 10.5288 37.3416 9.52852C36.8191 9.02874 36.4034 8.42897 36.1194 7.76527C35.8355 7.10156 35.6891 6.38759 35.6891 5.66616C35.6891 4.94474 35.8355 4.23076 36.1194 3.56706C36.4034 2.90335 36.8191 2.30359 37.3416 1.8038C37.8852 1.27614 38.5285 0.86108 39.2343 0.582631C39.9401 0.304182 40.6943 0.167865 41.4533 0.181598C42.2163 0.167287 42.9746 0.303261 43.6847 0.581649C44.3947 0.860036 45.0425 1.27536 45.5909 1.8038C46.1134 2.30359 46.5291 2.90335 46.8131 3.56706C47.097 4.23076 47.2434 4.94474 47.2434 5.66616C47.2434 6.38759 47.097 7.10156 46.8131 7.76527C46.5291 8.42897 46.1134 9.02874 45.5909 9.52852V9.34826ZM68.0114 9.34826C66.8985 10.3911 65.4279 10.9718 63.8997 10.9718C62.3714 10.9718 60.9008 10.3911 59.788 9.34826C59.2588 8.85232 58.8372 8.25387 58.549 7.58964C58.2608 6.92542 58.1121 6.20946 58.1121 5.4859C58.1121 4.76233 58.2608 4.04642 58.549 3.3822C58.8372 2.71797 59.2588 2.11948 59.788 1.62354C60.9008 0.580669 62.3714 0 63.8997 0C65.4279 0 66.8985 0.580669 68.0114 1.62354C68.5339 2.12333 68.9496 2.72309 69.2336 3.38679C69.5175 4.0505 69.6639 4.76447 69.6639 5.4859C69.6639 6.20733 69.5175 6.92134 69.2336 7.58504C68.9496 8.24875 68.5339 8.84847 68.0114 9.34826Z" fill="#FFFEFC"/>
</g>
</svg>
