<svg width="500" height="534" viewBox="0 0 500 534" fill="none" xmlns="http://www.w3.org/2000/svg">
<path d="M463.02 111.114C453.377 117.262 445.915 126.268 441.686 136.863C440.06 141.318 438.932 145.938 438.324 150.639C437.161 157.076 436.255 164.543 435.35 172.912C434.445 181.28 433.928 190.292 433.54 199.691C433.152 209.089 433.54 218.488 433.54 227.757C433.54 245.009 432.635 264.192 431.989 285.435C431.342 306.678 430.566 330.882 429.661 357.661C429.661 365.386 428.756 374.913 428.11 386.629C427.346 399.11 425.354 411.486 422.162 423.579C418.438 437.083 413.007 450.061 406 462.203C397.821 476.22 386.92 488.475 373.933 498.251C358.532 510.091 340.966 518.836 322.214 524C296.937 530.805 270.812 533.97 244.634 533.399C218.481 533.961 192.375 530.928 167.055 524.387C148.44 519.498 130.901 511.203 115.335 499.925C103.006 490.64 92.5629 479.106 84.5617 465.936C77.6222 454.591 72.1073 442.441 68.1407 429.759C64.7924 419.22 62.6667 408.335 61.8051 397.315C61.1586 387.402 60.8999 380.063 60.8999 375.299C60.8999 364.099 60.8999 349.55 60.8999 331.397C60.8999 313.244 60.8999 292.774 60.8999 271.145V169.436C60.9012 162.685 60.5559 155.938 59.8655 149.223C59.318 143.541 58.3674 137.905 57.0209 132.357C56.0866 128.057 54.1363 124.041 51.3318 120.641C45.5047 113.883 37.9562 108.813 29.4803 105.964C19.9394 102.705 10.0431 100.587 0 99.6556V93.6048H188.777V99.1407C182.381 100.001 176.036 101.204 169.77 102.746C163.289 104.243 157.09 106.764 151.409 110.213C145.76 114.021 141.033 119.035 137.574 124.89C133.572 131.882 131.394 139.76 131.239 147.806C131.239 159.007 131.239 168.406 130.334 176.002C129.429 183.598 130.334 190.936 130.334 197.76V318.652C130.334 327.921 130.334 336.933 130.334 345.559C130.334 354.185 130.334 363.197 130.334 372.853C130.455 392.629 133.863 412.249 140.419 430.918C146.172 447.411 155.234 462.567 167.055 475.463C178.679 487.889 192.949 497.567 208.818 503.787C226.787 510.7 245.933 514.067 265.193 513.701C285.861 514.179 306.481 511.531 326.351 505.847C341.877 501.536 356.384 494.182 369.02 484.218C379.62 475.329 388.4 464.488 394.88 452.289C401.543 440.16 406.462 427.158 409.491 413.666C412.722 399.909 414.84 385.917 415.826 371.823C416.861 357.661 417.378 343.628 417.378 329.981V227.886C417.378 219.775 417.378 211.535 417.378 203.167C417.378 194.799 417.378 186.688 416.343 179.092C415.309 171.496 415.309 164.286 414.533 157.72C413.93 152.255 412.627 146.89 410.654 141.755C406.469 130.542 398.818 120.941 388.803 114.333C374.895 105.989 359.311 100.802 343.16 99.1407V93.0897H500V99.1407C486.948 100.417 474.33 104.502 463.02 111.114ZM227.955 46.7413C225.213 49.3835 221.974 51.4603 218.423 52.8523C214.873 54.2442 211.082 54.9239 207.267 54.8523C199.728 55.234 192.342 52.6438 186.708 47.6426C184.096 45.1437 182.017 42.1449 180.597 38.8263C179.177 35.5078 178.445 31.9379 178.445 28.3308C178.445 24.7237 179.177 21.1538 180.597 17.8353C182.017 14.5167 184.096 11.5179 186.708 9.01901C189.426 6.38072 192.643 4.3054 196.171 2.91315C199.7 1.52091 203.471 0.839323 207.267 0.907991C211.082 0.836437 214.873 1.5163 218.423 2.90824C221.974 4.30018 225.213 6.37682 227.955 9.01901C230.567 11.5179 232.646 14.5167 234.065 17.8353C235.485 21.1538 236.217 24.7237 236.217 28.3308C236.217 31.9379 235.485 35.5078 234.065 38.8263C232.646 42.1449 230.567 45.1437 227.955 47.6426V46.7413ZM340.057 46.7413C334.493 51.9557 327.139 54.8592 319.498 54.8592C311.857 54.8592 304.504 51.9557 298.94 46.7413C296.294 44.2616 294.186 41.2693 292.745 37.9482C291.304 34.6271 290.56 31.0473 290.56 27.4295C290.56 23.8117 291.304 20.2321 292.745 16.911C294.186 13.5899 296.294 10.5974 298.94 8.1177C304.504 2.90334 311.857 0 319.498 0C327.139 0 334.493 2.90334 340.057 8.1177C342.669 10.6166 344.748 13.6154 346.168 16.934C347.588 20.2525 348.319 23.8224 348.319 27.4295C348.319 31.0366 347.588 34.6067 346.168 37.9252C344.748 41.2438 342.669 44.2424 340.057 46.7413Z" fill="#FFFEFC"/>
</svg>
